<?xml version="1.0" encoding="UTF-8" standalone="no"?>
<!-- Created with Inkscape (http://www.inkscape.org/) -->

<svg
   xmlns:dc="http://purl.org/dc/elements/1.1/"
   xmlns:cc="http://creativecommons.org/ns#"
   xmlns:rdf="http://www.w3.org/1999/02/22-rdf-syntax-ns#"
   xmlns:svg="http://www.w3.org/2000/svg"
   xmlns="http://www.w3.org/2000/svg"
   xmlns:sodipodi="http://sodipodi.sourceforge.net/DTD/sodipodi-0.dtd"
   xmlns:inkscape="http://www.inkscape.org/namespaces/inkscape"
   version="1.1"
   id="svg2"
   width="550"
   height="550"
   viewBox="0 0 550 550"
   sodipodi:docname="logo.svg"
   inkscape:version="0.92.4 (5da689c313, 2019-01-14)">
  <metadata
     id="metadata8">
    <rdf:RDF>
      <cc:Work
         rdf:about="">
        <dc:format>image/svg+xml</dc:format>
        <dc:type
           rdf:resource="http://purl.org/dc/dcmitype/StillImage" />
        <dc:title></dc:title>
      </cc:Work>
    </rdf:RDF>
  </metadata>
  <defs
     id="defs6" />
  <sodipodi:namedview
     pagecolor="#ffffff"
     bordercolor="#666666"
     borderopacity="1"
     objecttolerance="10"
     gridtolerance="10"
     guidetolerance="10"
     inkscape:pageopacity="0"
     inkscape:pageshadow="2"
     inkscape:window-width="640"
     inkscape:window-height="480"
     id="namedview4"
     showgrid="false"
     inkscape:zoom="0.82909091"
     inkscape:cx="294.29825"
     inkscape:cy="275"
     inkscape:current-layer="svg2" />
  <path
     style="fill:#212121"
     d="m 313.06512,479.04025 c -0.95317,-0.5891 -1.39487,-4.25313 -1.58861,-13.17811 -0.14759,-6.79918 -0.59402,-15.04941 -0.99205,-18.33386 -0.64148,-5.29325 -0.54991,-5.82749 0.80597,-4.70221 1.3066,1.08439 1.64249,0.78861 2.30333,-2.02828 0.42551,-1.81378 0.80349,-3.97279 0.83995,-4.79779 0.0461,-1.04421 1.05385,-1.4552 3.31629,-1.35255 1.7875,0.0811 3.25,-0.25641 3.25,-0.75 0,-0.4936 0.92656,-0.89745 2.05902,-0.89745 1.38106,0 1.81175,0.41157 1.30804,1.25 -0.57457,0.95637 -0.41226,0.98589 0.69098,0.12563 1.69885,-1.32467 7.94196,-2.35346 7.94196,-1.30873 0,0.39628 1.77623,0.32141 3.94718,-0.16637 2.17095,-0.48778 4.98345,-0.88207 6.25,-0.87619 2.69643,0.0125 17.84439,-0.91518 22.55282,-1.38117 1.7875,-0.1769 3.25,0.0718 3.25,0.55278 0,0.48093 1.0125,0.31203 2.25,-0.37533 1.2375,-0.68736 2.7,-1.28615 3.25,-1.33064 0.55,-0.0445 0.8878,-0.62202 0.75068,-1.28341 -0.30405,-1.46643 3.62814,-13.21831 5.00447,-14.95657 0.69135,-0.87315 0.57597,-1.25462 -0.38271,-1.26531 -1.0946,-0.0122 -1.07464,-0.20365 0.0986,-0.94563 0.80907,-0.51167 1.16441,-1.23694 0.78965,-1.6117 -0.37476,-0.37477 -0.0625,-2.16253 0.69386,-3.97281 0.75638,-1.81029 1.12441,-3.54226 0.81784,-3.84882 -0.30656,-0.30657 0.0209,-1.25415 0.72761,-2.10573 0.70675,-0.85158 1.01382,-1.81951 0.68238,-2.15095 -0.33144,-0.33144 0.14696,-2.00807 1.06311,-3.72583 0.91614,-1.71777 1.55479,-3.51593 1.41922,-3.9959 -0.13557,-0.47998 0.42256,-0.61594 1.24029,-0.30215 1.16712,0.44787 1.40083,-0.10864 1.087,-2.58836 -0.21988,-1.73739 0.6312,-6.32643 1.89128,-10.19785 1.26008,-3.87143 2.81845,-8.90489 3.46303,-11.18548 0.64458,-2.28058 1.84285,-4.40396 2.66283,-4.71861 0.81997,-0.31466 1.48397,-1.14872 1.47555,-1.85349 -0.0107,-0.89599 -0.30687,-0.83024 -0.98469,0.21862 -0.8354,1.29269 -0.97149,1.26629 -0.98469,-0.19098 -0.008,-0.93004 0.43469,-1.9691 0.98469,-2.30902 0.55,-0.33992 1,-1.61635 1,-2.83651 0,-1.22016 0.70052,-3.21861 1.5567,-4.44098 0.85619,-1.22238 1.37753,-2.22251 1.15854,-2.22251 -0.21899,0 -0.0966,-1.98727 0.27204,-4.41616 0.63352,-4.17445 0.5292,-4.44312 -1.90599,-4.90863 -1.41691,-0.27086 -2.80234,-0.19609 -3.07874,0.16616 -1.19863,1.57091 -11.30068,-0.27735 -15.50255,-2.83632 -6.30575,-3.84026 -6.81211,-3.42439 -6.69062,5.49495 0.0599,4.4 0.39456,10.1375 0.74363,12.75 0.5183,3.87913 0.35327,4.75 -0.90016,4.75 -0.84415,0 -1.81982,0.46115 -2.16816,1.02478 -0.34834,0.56362 -0.1949,0.90112 0.34098,0.75 0.53588,-0.15113 1.01933,0.0627 1.07433,0.47522 0.57353,4.3015 -1.41059,5.13912 -11.75773,4.96363 -4.9288,-0.0836 -8.17611,-0.66101 -9.83676,-1.74911 -1.36347,-0.89338 -2.2189,-1.88447 -1.90095,-2.20241 0.31795,-0.31795 0.148,-1.09632 -0.37767,-1.72971 -0.54236,-0.6535 -0.61701,-2.42345 -0.1726,-4.09201 0.76295,-2.86448 0.96609,-2.94792 7.86915,-3.23228 l 7.08598,-0.29188 -0.0244,-6.20812 C 363.74472,335.44928 363.89063,334.28338 365,336 c 0.53316,0.825 0.97627,0.9926 0.98469,0.37244 0.008,-0.62015 -0.66611,-1.69308 -1.49897,-2.38429 -0.85806,-0.71213 -1.49831,-2.82361 -1.47743,-4.87244 0.0203,-1.98864 -0.1576,-5.19071 -0.39527,-7.11571 -0.23767,-1.925 -0.5466,-5.4125 -0.68651,-7.75 -0.16555,-2.76592 -0.72375,-4.25 -1.59852,-4.25 -0.93386,0 -1.30681,1.29725 -1.22183,4.25 0.12891,4.47921 -1.58026,10.14921 -2.85429,9.4688 -0.96531,-0.51553 -3.75187,2.41826 -3.75187,3.95011 0,1.46097 -7.67604,7.29871 -13,9.88669 -3.05744,1.48622 -5.94402,1.9175 -12.24999,1.83026 C 319.33831,339.2764 310,336.91749 310,335.0284 c 0,-0.4434 -0.7875,-0.74368 -1.75,-0.66729 -1.14301,0.0907 -1.64935,-0.46256 -1.45983,-1.59514 0.19111,-1.14206 -0.19024,-1.54968 -1.11709,-1.19401 -1.78215,0.68387 -7.95857,-5.3856 -7.27999,-7.15394 0.2879,-0.75028 -0.0164,-1.11606 -0.70781,-0.85075 -0.66708,0.25599 -2.07074,-1.12756 -3.11926,-3.07454 -2.17324,-4.03547 -2.51848,-11.84405 -0.79438,-17.96747 1.241,-4.40763 0.1696,-6.09937 -2.84204,-4.48758 -0.92299,0.49397 -4.09724,1.12124 -7.05388,1.39394 -8.61756,0.79481 -12.07063,1.48525 -13.54413,2.70815 -0.75896,0.62988 -1.67063,0.85453 -2.02593,0.49922 -0.3553,-0.3553 -1.65938,0.018 -2.89794,0.82952 -1.23856,0.81153 -3.52448,1.7159 -5.07983,2.0097 -1.55534,0.29379 -5.75289,1.204 -9.32789,2.02267 -3.575,0.81867 -7.8164,1.70449 -9.42534,1.96849 -1.60893,0.264 -3.27473,1.04533 -3.70177,1.7363 -0.42704,0.69096 -1.77448,2.46456 -2.9943,3.94132 l -2.21787,2.68501 -7.08036,-4.81324 c -3.8942,-2.64728 -7.98036,-5.67206 -9.08036,-6.72173 -1.1,-1.04966 -3.4625,-2.55576 -5.25,-3.34687 -1.7875,-0.79111 -3.25,-1.6821 -3.25,-1.97999 0,-0.565 -1.16496,-0.71075 -7,-0.87574 -8.19345,-0.23168 -10.69534,1.12003 -11.5384,6.23391 -0.37825,2.29441 -1.10216,4.68622 -1.60869,5.31512 -1.11362,1.38267 -2.54144,9.33724 -3.18589,17.74897 -0.2225,2.90427 0.28965,4.59106 2.01739,6.64436 1.27357,1.51356 2.31559,3.72602 2.31559,4.91658 0,1.19057 0.43035,1.8987 0.95633,1.57362 0.52598,-0.32507 0.70087,-1.25673 0.38866,-2.07036 -0.39536,-1.03028 -0.0977,-1.29898 0.98053,-0.88521 0.91889,0.35261 1.30155,1.23685 0.9414,2.17538 -0.40163,1.04664 -0.21123,1.33682 0.56314,0.85823 0.74856,-0.46264 1.16994,0.0185 1.16994,1.33595 0,1.13246 0.45,2.05902 1,2.05902 0.55,0 1,-0.64963 1,-1.44363 0,-0.94789 1.10673,-0.43279 3.22286,1.5 1.77257,1.619 3.59913,2.94363 4.05902,2.94363 0.45988,0 0.58718,0.40285 0.28288,0.89522 -0.3043,0.49236 0.14251,1.16221 0.99292,1.48854 0.8854,0.33976 1.28509,0.17086 0.93524,-0.39521 -1.02412,-1.65707 1.06886,-1.10321 3.36873,0.89146 1.41447,1.22676 1.95606,2.52978 1.55868,3.75 -0.50315,1.54498 -0.42146,1.60929 0.47002,0.36999 0.95913,-1.33333 1.08243,-1.33333 1.10965,0 0.0219,1.07111 0.24824,1.15769 0.79171,0.30279 0.50194,-0.78959 1.26281,-0.87992 2.23468,-0.26532 0.99616,0.62997 1.06861,0.93687 0.22361,0.94722 -0.6875,0.008 -1.25,0.51345 -1.25,1.1223 0,0.60884 0.70443,0.83667 1.56539,0.50629 1.22472,-0.46997 1.43327,-0.11241 0.95829,1.64301 -0.58637,2.16705 -0.56298,2.17538 0.6846,0.24371 1.1642,-1.80256 4.29172,-2.81152 4.29172,-1.38454 0,0.31743 0.58435,1.28125 1.29856,2.14182 0.76241,0.91865 0.90861,1.80566 0.35411,2.14837 -0.51945,0.32103 -0.63442,2.04859 -0.2555,3.83902 1.05074,4.96484 0.79606,6.09993 -1.64124,7.31506 -1.23424,0.61533 -1.94674,1.41612 -1.58334,1.77953 0.36341,0.36341 -0.26426,0.66074 -1.39481,0.66074 -2.15474,0 -2.68092,2.8527 -0.77778,4.21672 0.55,0.3942 1.04233,1.2942 1.09407,2 0.0517,0.7058 0.62642,2.58213 1.27708,4.1696 0.65065,1.58748 1.29634,3.61248 1.43486,4.5 0.13852,0.88753 0.59875,2.16948 1.02274,2.8488 0.65278,1.04589 1.58904,9.34685 1.74991,15.51488 0.0251,0.9625 0.43192,1.75 0.90403,1.75 1.14236,0 2.2465,5.45699 3.48724,17.23497 0.2164,2.05423 0.70685,4.24204 1.08988,4.8618 0.38303,0.61976 0.0763,1.51963 -0.68169,1.99972 -1.07812,0.68287 -0.98158,0.87622 0.44345,0.8882 1.29186,0.0109 1.74993,0.6696 1.57522,2.26531 -0.41988,3.83513 1.25523,16.72592 2.25366,17.34298 0.5688,0.35154 0.47925,1.14828 -0.22434,1.99605 -0.90765,1.09365 -0.87359,1.41097 0.15145,1.41097 0.97467,0 1.02843,0.29401 0.20446,1.11798 -0.64702,0.64702 -0.87654,2.60587 -0.54483,4.64995 0.44418,2.73716 0.14443,3.86605 -1.33201,5.01655 -1.14719,0.89393 -1.3084,1.28279 -0.40518,0.97737 1.09605,-0.37062 1.5,0.24395 1.5,2.28214 0,1.53414 -0.36128,3.15063 -0.80285,3.5922 -0.44157,0.44156 -0.54293,0.12549 -0.22524,-0.70238 0.39271,-1.0234 -0.047,-1.50524 -1.37373,-1.50524 -1.07324,0 -1.76434,0.30258 -1.53577,0.67241 0.7901,1.27842 -2.30903,2.92486 -4.6814,2.48705 -1.30956,-0.24168 -2.97007,-0.47285 -3.69003,-0.51372 C 219.47102,478.03344 219.16008,477.55 219.5,477 c 0.33992,-0.55 -0.0694,-1 -0.9096,-1 -0.94705,0 -1.30887,-0.57008 -0.95203,-1.5 0.31659,-0.825 0.0391,-1.5 -0.61671,-1.5 -0.83522,0 -1.09189,-1.94742 -0.85699,-6.50233 0.18443,-3.57628 -0.0218,-6.62032 -0.45823,-6.76452 -0.43646,-0.14421 -0.91711,-2.75369 -1.06811,-5.79886 -0.15101,-3.04517 -0.58286,-6.03552 -0.95968,-6.64524 -0.37683,-0.60971 -0.4092,-1.82765 -0.0719,-2.70653 0.33725,-0.87888 -0.0598,-2.62504 -0.88229,-3.88035 -0.82251,-1.25531 -1.36508,-3.47023 -1.20571,-4.92204 0.17368,-1.58221 -0.28262,-2.85929 -1.13904,-3.18793 -0.97287,-0.37333 -1.22682,-1.35304 -0.79583,-3.07024 0.56499,-2.25106 0.32594,-2.52538 -2.22543,-2.55376 -2.78846,-0.031 -2.80946,-0.071 -0.85841,-1.63454 l 2,-1.60273 -2,0.74799 c -4.77913,1.78736 -5.84617,1.86557 -5.27875,0.3869 0.40546,-1.05663 -0.16508,-1.43588 -2.08133,-1.38349 -3.27747,0.0896 -4.1051,-1.01597 -4.12461,-5.50982 -0.008,-1.94013 -0.71583,-4.52763 -1.57201,-5.75 -1.19382,-1.70442 -1.2521,-2.22608 -0.25,-2.23782 0.90329,-0.0106 0.96226,-0.24213 0.19103,-0.75 -0.61361,-0.40408 -2.18861,-2.70821 -3.5,-5.12029 -2.60578,-4.79293 -3.02668,-5.48391 -7.37913,-12.1144 -1.62467,-2.475 -3.45824,-5.4 -4.07462,-6.5 -5.70246,-10.17684 -6.81432,-12.06412 -7.36416,-12.5 -0.7278,-0.57695 -10.08005,-19.53307 -13.0154,-26.38097 C 156.96205,344.07856 155.63541,342 155.10293,342 c -0.98404,0 -2.66781,-3.86567 -2.29485,-5.26861 0.11238,-0.42274 -0.86146,-1.25422 -2.16409,-1.84774 -1.30263,-0.59352 -2.84288,-2.49764 -3.42277,-4.23139 -0.57989,-1.73374 -1.98027,-5.62726 -3.11196,-8.65226 -1.13169,-3.025 -2.96814,-10.14005 -4.08101,-15.81121 -1.11287,-5.67117 -2.41856,-11.07117 -2.90154,-12 -2.06705,-3.97526 -5.99328,-17.36338 -7.53355,-25.68879 -1.8811,-10.16764 -2.40654,-25.35776 -0.91131,-26.34559 1.37123,-0.90591 2.93346,-6.09959 2.82015,-9.37568 -0.0518,-1.4967 0.48152,-2.94216 1.18508,-3.21215 0.70356,-0.26998 1.01604,-1.17666 0.6944,-2.01485 -0.9315,-2.42745 4.37136,-15.99603 8.71185,-22.29123 2.18449,-3.16828 5.47933,-8.0105 7.32186,-10.7605 1.84253,-2.75 5.63266,-7.21318 8.42252,-9.91817 2.78985,-2.70499 4.84111,-5.29249 4.55836,-5.75 -0.28276,-0.45751 0.005,-0.83183 0.64054,-0.83183 2.30908,0 7.05406,-4.20704 6.75919,-5.9929 -0.34774,-2.10608 2.8773,-6.0071 4.96618,-6.0071 0.88449,0 1.22539,-0.59054 0.8722,-1.51094 -0.98407,-2.56443 0.42092,-7.40515 1.97608,-6.80838 C 178.37462,157.974 179,157.71583 179,157.10699 179,156.49814 180.125,156 181.5,156 c 1.375,0 2.5,-0.42185 2.5,-0.93743 0,-0.76289 8.15552,-0.81072 23.5,-0.13783 0.55,0.0241 2.87523,-0.21779 5.16717,-0.53758 3.73011,-0.52045 4.30695,-0.31554 5.5,1.9538 1.27259,2.42064 12.1589,14.81158 20.04636,22.81702 4.17235,4.23477 6.28079,3.35447 2.90424,-1.21256 C 239.953,176.36998 239,174.61276 239,174.04049 239,173.46822 238.63286,173 238.18414,173 c -0.44872,0 -1.81853,-1.78401 -3.04401,-3.96446 -1.22548,-2.18045 -3.09225,-4.99295 -4.14839,-6.25 -6.73717,-8.01884 -7.29923,-9.2603 -8.50499,-18.78554 -0.34093,-2.69327 2.99105,-7.63547 5.51325,-8.17759 0.825,-0.17733 1.725,-0.58615 2,-0.90849 0.275,-0.32234 3.65,-2.31786 7.5,-4.43448 8.47387,-4.6587 22.14941,-17.91825 25.51548,-24.73934 4.2131,-8.537525 8.32017,-10.208113 14.78718,-6.014825 3.54286,2.297235 4.04346,3.044355 3.50264,5.227515 -1.3441,5.4258 -7.34787,15.7681 -11.47792,19.77226 -5.56439,5.39479 -7.09629,7.24641 -6.11681,7.39348 0.43419,0.0652 10.7032,0.0331 22.82003,-0.0712 24.69347,-0.2127 31.39356,0.85683 43.42977,6.93269 3.43643,1.73471 6.80689,2.93956 7.48991,2.67746 0.68302,-0.2621 4.02991,-4.00475 7.43754,-8.317 9.82342,-12.43125 9.90244,-12.50906 12.3499,-12.16161 1.74895,0.24829 2.33449,1.07343 2.58051,3.63648 0.17503,1.82343 -0.21757,3.96093 -0.87244,4.75 -0.93151,1.1224 -0.90476,1.43468 0.12289,1.43468 0.819,0 0.58271,0.5927 -0.62755,1.57416 -1.06762,0.86578 -1.37863,1.28923 -0.69113,0.94098 0.6875,-0.34825 1.25,-0.39365 1.25,-0.10091 0,1.31985 -4.48339,9.58577 -5.19927,9.58577 -0.4404,0 -0.80073,0.87764 -0.80073,1.95031 0,1.07267 -0.78375,2.38892 -1.74167,2.925 -0.95792,0.53608 -1.52042,1.12135 -1.25,1.30061 0.27042,0.17926 3.28218,2.23801 6.69281,4.575 5.37779,3.68491 6.90469,4.2489 11.5,4.24771 7.91074,-0.002 26.16333,-3.51777 30.60533,-5.89506 1.77166,-0.94816 2.99639,-0.94271 5.67323,0.0252 1.8776,0.67895 3.20544,1.57162 2.95075,1.98372 -0.25469,0.41209 -0.0369,1.01268 0.48407,1.33463 1.33588,0.82562 0.27937,5.68111 -1.71589,7.88584 -2.15668,2.38311 -13.97308,7.92442 -15.23504,7.14449 C 390.43362,170.14996 390,170.28601 390,170.77984 c 0,0.49384 -3.78916,1.48733 -8.42035,2.20777 l -8.42035,1.30989 3.67035,2.47739 c 2.01869,1.36256 5.35915,3.99562 7.42323,5.85125 2.06409,1.85562 4.15241,3.37386 4.64072,3.37386 1.19266,0 12.20048,16.29755 15.02827,22.25 1.2411,2.6125 2.6664,4.75 3.16734,4.75 0.50093,0 0.91079,1.125 0.91079,2.5 0,1.375 0.41425,2.5 0.92054,2.5 0.5063,0 1.21706,1.35 1.57946,3 0.3624,1.65 1.14816,3 1.74612,3 0.59797,0 0.78681,0.3004 0.41965,0.66756 -0.36715,0.36716 0.71015,3.10872 2.39401,6.09236 2.84994,5.04981 3.08832,6.25121 3.44855,17.37984 0.21284,6.57528 0.67286,12.85575 1.02226,13.95661 0.3497,1.10181 -0.006,2.99097 -0.79051,4.20259 -2.01101,3.10449 -1.5511,10.63484 0.75239,12.31919 7.04292,5.14991 7.11015,5.30239 6.8133,15.45312 -0.15166,5.1858 -0.74578,12.26271 -1.32028,15.72645 -0.57449,3.46375 -0.77969,6.72625 -0.456,7.25 0.3237,0.52376 0.15412,0.95228 -0.37685,0.95228 -0.53097,0 -0.72942,0.9024 -0.441,2.00533 0.28843,1.10293 0.10008,2.56543 -0.41854,3.25 -0.51861,0.68457 -0.82289,2.49256 -0.67616,4.01776 0.14673,1.52519 -0.0782,2.55989 -0.49978,2.29932 -0.4216,-0.26057 -1.75087,1.55225 -2.95391,4.02848 -1.24223,2.55687 -2.64333,4.22044 -3.24261,3.85006 -0.58039,-0.3587 -1.30113,0.28803 -1.60164,1.43719 -0.30051,1.14915 -0.87022,1.88922 -1.26602,1.6446 -0.39581,-0.24462 -0.74722,0.0979 -0.78091,0.76125 -0.21232,4.17957 -1.43738,10.24871 -2.11547,10.48042 -0.44168,0.15092 -0.6115,1.5795 -0.37739,3.17461 0.23411,1.5951 -0.0641,4.39662 -0.66281,6.22559 -0.59865,1.82896 -1.32215,5.21492 -1.60778,7.52435 -0.28562,2.30943 -1.0417,5.45943 -1.68017,7 -0.63847,1.54057 -1.25482,3.13854 -1.36966,3.55104 -0.11483,0.4125 -0.3016,0.8625 -0.41503,1 -0.68585,0.83137 -0.46442,5.99002 0.27678,6.44811 0.51599,0.3189 0.5001,0.81575 -0.0376,1.17689 -1.7027,1.14352 -3.95785,9.77139 -3.13527,11.99506 0.58772,1.58874 0.399,2.12994 -0.74271,2.12994 -0.8589,0 -1.45251,0.76801 -1.35262,1.75 0.41994,4.12832 -0.0485,5.46542 -1.69374,4.8341 -1.34401,-0.51575 -1.42204,-0.36551 -0.43061,0.82909 0.86733,1.04506 0.91679,2.00839 0.17436,3.39565 -0.57007,1.06517 -0.84782,2.91632 -0.61723,4.11366 0.25176,1.30733 -0.17277,2.40416 -1.06272,2.74567 -0.87135,0.33436 -1.25394,1.2871 -0.92856,2.31229 0.30437,0.95899 -0.28744,3.7182 -1.31514,6.13158 -1.02769,2.41338 -1.65493,5.0131 -1.39387,5.77716 0.28883,0.8453 0.0324,1.11583 -0.65506,0.69098 -0.65269,-0.40339 -1.12973,-0.0485 -1.12973,0.84057 0,0.84633 -0.71566,3.32738 -1.59035,5.51346 -1.54288,3.85603 -1.72944,3.97252 -6.25,3.90228 -2.56281,-0.0398 -9.38465,0.26074 -15.15965,0.66791 -5.775,0.40718 -16.39339,0.79776 -23.59641,0.86796 -16.8504,0.16423 -16.56004,-0.0575 -16.43628,12.55265 0.11029,11.23866 -0.68901,16.93955 -2.64999,18.90053 -1.22142,1.22141 -1.33739,1.02145 -0.84369,-1.45474 0.48359,-2.42551 0.42456,-2.53767 -0.38055,-0.72313 -0.52411,1.18122 -1.4471,2.45309 -2.05109,2.82638 -1.7908,1.10677 -6.55504,1.44494 -7.97687,0.5662 z m -88.53866,-2.84712 c -0.30789,-0.30789 -1.11479,-6.4e-4 -1.79313,0.68278 -0.98026,0.98762 -0.8654,1.10248 0.5598,0.5598 0.98622,-0.37553 1.54122,-0.93469 1.23333,-1.24258 z M 362,435.89418 c 0,-0.96283 -2.68399,-1.87685 -3.40223,-1.15861 -1.20397,1.20396 -0.54683,2.1363 1.40223,1.98948 1.1,-0.0829 2,-0.45675 2,-0.83087 z m 4.85012,-2.95668 c 0.38671,-1.16999 0.19512,-1.2065 -1.02951,-0.19618 -0.82754,0.68273 -1.87287,0.90773 -2.32294,0.5 -0.45008,-0.40772 -0.47994,-0.15507 -0.0663,0.56147 0.91074,1.57787 2.76653,1.10817 3.4188,-0.86529 z m -141.9723,-1.51301 c 0.38886,0.24033 0.77429,-0.54437 0.85651,-1.74377 0.14584,-2.12729 0.11418,-2.13316 -1.29241,-0.23959 -0.79306,1.06762 -1.40639,2.41762 -1.36297,3 0.0434,0.58238 0.30685,0.49357 0.58541,-0.19736 0.27855,-0.69093 0.82461,-1.0596 1.21346,-0.81928 z M 222.5,427 c -0.33992,-0.55 -1.15398,-0.99311 -1.80902,-0.98469 -0.71561,0.009 -0.59227,0.40223 0.30902,0.98469 1.92112,1.24153 2.2673,1.24153 1.5,0 z m 157.04112,-3.06653 c 1.07627,-1.74144 -0.14952,-2.11024 -1.52106,-0.45764 -0.78875,0.95039 -0.86462,1.52417 -0.20152,1.52417 0.58488,0 1.36004,-0.47994 1.72258,-1.06653 z m -179.93695,-4.66264 c -0.3323,-0.33229 -0.56864,0.25834 -0.52522,1.3125 0.048,1.16495 0.28494,1.4019 0.60416,0.60417 0.28887,-0.72188 0.25335,-1.58438 -0.0789,-1.91667 z M 398,391 c 0,-0.55 -0.42344,-1 -0.94098,-1 -0.51754,0 -1.2191,0.45 -1.55902,1 -0.33992,0.55 0.0835,1 0.94098,1 0.85746,0 1.55902,-0.45 1.55902,-1 z m 7,-16.05902 c 0,-0.58246 -0.45,-0.7809 -1,-0.44098 -1.28138,0.79194 -1.28138,1.5 0,1.5 0.55,0 1,-0.47656 1,-1.05902 z m -3.9715,-13.95623 C 402.8999,359.9832 402.75428,357 400.83399,357 c -0.52361,0 -0.63172,0.51827 -0.24023,1.1517 0.39148,0.63344 -0.11797,1.75844 -1.13211,2.5 -2.16436,1.58262 -1.16493,1.79505 1.56685,0.33305 z M 201,349.10699 c 0,-0.49116 -0.7118,-1.16616 -1.58179,-1.5 -2.14947,-0.82483 -2.41821,-0.7746 -2.41821,0.45203 0,0.58246 0.45,0.7809 1,0.44098 0.55,-0.33992 1,-0.14148 1,0.44098 0,0.58246 0.45,1.05902 1,1.05902 0.55,0 1,-0.40186 1,-0.89301 z m 206,-1.37881 c 0,-0.46542 0.45,-0.5681 1,-0.22818 0.55,0.33992 1,0.14148 1,-0.44098 0,-1.50269 -2.27804,-1.31136 -4.55887,0.3829 -1.88659,1.4014 -1.87791,1.43757 0.30887,1.28719 1.2375,-0.0851 2.25,-0.53551 2.25,-1.00093 z m -79,-10.7872 c 0,-0.58246 -0.45,-0.7809 -1,-0.44098 -1.28138,0.79194 -1.28138,1.5 0,1.5 0.55,0 1,-0.47656 1,-1.05902 z m -23.42857,-7.82737 c 0,-1.14525 -0.51517,-1.68869 -1.31124,-1.38321 -0.99906,0.38337 -1.03793,0.83248 -0.16327,1.88638 1.45832,1.75717 1.47451,1.75165 1.47451,-0.50317 z m 21.61607,-0.79672 c -0.72188,-0.28887 -1.58438,-0.25335 -1.91667,0.0789 -0.33229,0.33229 0.25834,0.56864 1.3125,0.52522 1.16495,-0.048 1.4019,-0.28494 0.60417,-0.60416 z m 10.3024,-4.31143 c 3.09814,-1.67615 6.00434,-2.81804 6.45823,-2.53752 0.45389,0.28052 1.39834,-0.18049 2.09878,-1.02446 0.70043,-0.84397 1.87642,-1.30314 2.6133,-1.02037 0.82775,0.31763 1.33979,-0.2064 1.33979,-1.37116 0,-1.03691 0.43758,-2.03528 0.97241,-2.21862 0.53482,-0.18333 1.15189,-2.5029 1.37126,-5.15459 0.21937,-2.6517 0.90679,-5.3292 1.52759,-5.95 C 353.49207,304.10793 354,302.43 354,301 c 0,-1.43 0.52093,-3.12093 1.15762,-3.75762 0.87226,-0.87226 0.8744,-1.49888 0.009,-2.54201 -0.63191,-0.76141 -0.91697,-1.61636 -0.63345,-1.89988 0.28352,-0.28352 -0.13498,-1.05533 -0.93,-1.71514 -1.20384,-0.9991 -1.36265,-0.81396 -0.94995,1.1075 0.48198,2.24397 0.45244,2.25399 -1.07867,0.36602 C 350.7084,291.49125 350,290.25375 350,289.80887 350,289.36399 348.97015,289 347.71144,289 c -1.25871,0 -3.87932,-0.81102 -5.82359,-1.80226 -2.33076,-1.18829 -4.42401,-1.56452 -6.14451,-1.10439 -1.83934,0.49192 -2.77241,0.27327 -3.16157,-0.74086 -0.41902,-1.09195 -1.0183,-1.18923 -2.48626,-0.4036 -1.3895,0.74363 -2.04391,0.70592 -2.32386,-0.13393 -0.25001,-0.75005 -0.90616,-0.84959 -1.83067,-0.27773 -0.79254,0.49024 -3.24098,1.01296 -5.44098,1.16161 -2.2,0.14865 -4.47239,0.35222 -5.04975,0.45238 -1.46565,0.25426 -1.59314,3.84069 -0.1381,3.88474 0.65332,0.0198 0.008,1.03228 -1.43379,2.25 -1.44191,1.21772 -3.15199,3.23914 -3.80018,4.49205 -0.65356,1.26329 -1.67044,1.97399 -2.28286,1.59549 -0.65323,-0.40372 -0.82223,-0.22606 -0.41374,0.4349 0.37984,0.61458 -0.22243,3.89867 -1.33837,7.29799 l -2.02898,6.18057 2.08768,3.37793 c 2.88609,4.6698 7.95837,8.30261 13.60296,9.74255 8.11395,2.06989 10.77926,1.84727 16.78503,-1.40198 z m -18.63159,-10.09303 c -0.73215,-0.45249 -1.23987,-3.30834 -1.2845,-7.22512 -0.0574,-5.03694 0.34971,-6.94491 1.83118,-8.58209 1.44394,-1.59571 1.56495,-2.12496 0.5,-2.18679 -0.77275,-0.0449 0.0686,-0.72567 1.86957,-1.51289 1.90891,-0.83439 4.37275,-1.15569 5.90781,-0.77041 2.48417,0.62348 2.52857,0.73746 0.78432,2.01289 -1.53475,1.12224 -1.57975,1.35198 -0.26481,1.35198 2.93301,0 3.20456,5.29447 0.37106,7.23469 -0.72121,0.49384 -0.66316,0.7397 0.17706,0.75 0.79461,0.01 1.25,1.51154 1.25,4.1223 0,3.38203 -0.28715,3.9968 -1.62675,3.48275 -0.89471,-0.34334 -2.28225,-0.0802 -3.08343,0.58469 -1.7301,1.43586 -4.74297,1.78158 -6.43151,0.738 z M 404.6,320.6 c 1.87,-1.87 3.4,-4.27 3.4,-5.33333 0,-1.06334 0.29746,-2.2308 0.66102,-2.59436 0.36356,-0.36356 0.79495,-1.90106 0.95863,-3.41666 0.16368,-1.51561 0.56599,-5.19017 0.89401,-8.16569 C 411.49046,292.22925 408.09401,286 402.286,286 c -2.34435,0 -3.17894,-0.36421 -2.68097,-1.16994 0.51143,-0.82751 0.16285,-0.93458 -1.19099,-0.36582 -1.05272,0.44226 -5.06404,0.92752 -8.91404,1.07835 -8.65456,0.33906 -14.23247,2.54329 -15.09089,5.96351 -0.34426,1.37164 -1.01302,2.4939 -1.48613,2.4939 -0.47312,0 -0.56508,0.7875 -0.20436,1.75 0.57405,1.53176 0.44567,1.57905 -1.02944,0.37918 -1.5445,-1.25632 -1.67467,-0.91076 -1.5583,4.13688 0.0698,3.02924 -0.1826,6.00861 -0.56097,6.62083 C 369.19154,307.4991 369.38508,308 370,308 c 0.61492,0 0.86502,0.40939 0.55577,0.90976 -1.05316,1.70405 0.65168,4.09024 2.92232,4.09024 1.48419,0 3.08357,1.22847 4.64301,3.56624 3.5037,5.25244 8.08178,7.337 16.2289,7.38956 6.48263,0.0418 7.03234,-0.13814 10.25,-3.3558 z m -23.92431,-11.35 c -1.85909,-3.71638 -1.33672,-11.29347 0.89088,-12.92233 2.37888,-1.73949 5.85692,-1.03686 6.29134,1.27097 0.19686,1.04575 1.20936,2.70639 2.25,3.69032 2.2756,2.15156 2.43975,3.13518 0.39209,2.34941 -0.825,-0.31658 -1.5,-0.13972 -1.5,0.39301 0,0.53274 0.5625,0.97551 1.25,0.98393 0.82968,0.0102 0.74562,0.33415 -0.25,0.96353 -0.825,0.52152 -1.29558,1.07712 -1.04573,1.23469 0.98159,0.61901 -3.5031,4.78647 -5.15083,4.78647 -0.96364,0 -2.37113,-1.2375 -3.12775,-2.75 z m -76.48819,13.06689 c -0.72188,-0.28887 -1.58438,-0.25335 -1.91667,0.0789 -0.33229,0.33229 0.25834,0.56864 1.3125,0.52522 1.16495,-0.048 1.4019,-0.28494 0.60417,-0.60416 z m 106,-2 c -0.72188,-0.28887 -1.58438,-0.25335 -1.91667,0.0789 -0.33229,0.33229 0.25834,0.56864 1.3125,0.52522 1.16495,-0.048 1.4019,-0.28494 0.60417,-0.60416 z M 299,301.44098 c 0,-0.85746 -0.45,-1.2809 -1,-0.94098 -1.29391,0.79968 -1.29391,2.5 0,2.5 0.55,0 1,-0.70156 1,-1.55902 z M 361,302 c 0,-0.55 -0.47656,-1 -1.05902,-1 -0.58246,0 -0.7809,0.45 -0.44098,1 0.33992,0.55 0.81648,1 1.05902,1 0.24254,0 0.44098,-0.45 0.44098,-1 z m -101,-7.8045 c 0.825,-0.28101 2.05193,-0.42267 2.72651,-0.31478 0.67458,0.10789 2.24958,-0.47385 3.5,-1.29275 3.50996,-2.2987 14.81454,-5.5607 19.32054,-5.57507 3.39554,-0.0108 4.67585,-0.65684 7.95295,-4.0129 2.14824,-2.2 4.5075,-4 5.24279,-4 0.73529,0 3.11896,-0.90915 5.29705,-2.02032 2.84412,-1.45097 3.98241,-1.66233 4.03911,-0.75 0.0578,0.93034 0.20892,0.95081 0.56461,0.0765 0.26711,-0.65661 1.08606,-0.96343 1.8199,-0.68183 0.73383,0.2816 1.63207,0.0301 1.99608,-0.55888 0.43748,-0.70787 1.26591,-0.74759 2.44383,-0.11719 1.17435,0.6285 3.45531,0.52799 6.68931,-0.29477 5.22124,-1.32833 21.43868,-1.3702 23.5573,-0.0608 0.69598,0.43014 2.28507,0.89079 3.53131,1.02366 1.24624,0.13287 3.86457,1.46095 5.81851,2.9513 2.79694,2.13332 4.69808,2.72627 8.93758,2.78756 5.05326,0.073 6.81076,-0.42633 13.89366,-3.94771 1.55707,-0.77413 3.89301,-1.4075 5.19098,-1.4075 1.29797,0 2.63806,-0.45 2.97798,-1 0.33992,-0.55 3.93992,-1 8,-1 6.85358,0 9.39079,-0.77588 7.78578,-2.38089 -0.36292,-0.36292 -0.72952,-1.43819 -0.81467,-2.38948 -0.48818,-5.45427 -1.78827,-10.13736 -2.93658,-10.57801 -2.03555,-0.78111 -9.92723,0.36575 -10.65849,1.54895 -0.35884,0.58061 -1.13433,0.75783 -1.72331,0.39382 -0.58898,-0.36401 -2.32679,0.64249 -3.8618,2.23667 -3.41515,3.5468 -5.87402,4.38349 -9.79093,3.33161 -2.25988,-0.60688 -3.13196,-1.52812 -3.53487,-3.73416 -0.72232,-3.95486 2.78033,-10.72834 5.21811,-10.09084 0.96161,0.25146 1.65127,0.004 1.53257,-0.55 -0.11869,-0.55397 2.48419,-2.0596 5.78419,-3.34585 5.32415,-2.0752 5.64056,-2.34444 2.80902,-2.39022 -1.75504,-0.0284 -3.44172,-0.4573 -3.74817,-0.95315 -0.30646,-0.49585 -3.14551,-2.6037 -6.30902,-4.68411 -3.16351,-2.08041 -5.97683,-4.06693 -6.25183,-4.41448 -0.275,-0.34756 -3.06309,-2.08377 -6.19575,-3.85825 -4.75815,-2.69521 -6.00883,-3.03079 -7.59764,-2.03857 -1.58919,0.99247 -3.11349,0.58161 -9.27113,-2.49893 -4.05308,-2.02767 -8.17164,-4.41284 -9.15236,-5.30038 C 333.80241,221.41619 333,221.11448 333,221.63325 c 0,1.40511 8.03332,7.78127 11.65478,9.25056 3.33737,1.35403 4.64008,4.09319 3.70968,7.80021 -0.6246,2.48861 -2.59456,3.39704 -6.36446,2.9349 -4.63502,-0.56819 -7.48716,-1.83536 -10.09179,-4.48367 -1.42548,-1.44939 -5.35946,-4.59642 -8.74217,-6.99341 -3.38271,-2.39699 -5.85937,-4.82902 -5.5037,-5.40451 0.36183,-0.58545 0.16913,-0.75121 -0.43748,-0.3763 -1.10345,0.68197 -9.14152,-3.6097 -14.90814,-7.95973 -1.7508,-1.32072 -3.39071,-2.4013 -3.64424,-2.4013 -0.25353,0 -1.90615,-1.35 -3.67248,-3 -1.76633,-1.65 -3.53624,-3 -3.93314,-3 -0.62473,0 0.51417,4.45631 3.89743,15.25 0.48078,1.53384 0.48159,2.75 0.002,2.75 -0.47308,0 -0.7862,1.85438 -0.69582,4.12086 0.13732,3.44363 -0.30797,4.49745 -2.70958,6.41242 -3.72087,2.96692 -6.15796,2.4068 -10.51846,-2.41747 -1.94824,-2.15545 -5.65186,-5.31571 -8.23026,-7.02279 l -4.68801,-3.10379 0.39757,3.25538 c 1.21279,9.93076 1.35412,12.71419 0.66712,13.13878 -0.92692,0.57287 -0.82282,4.78153 0.15751,6.36774 0.39096,0.63258 0.48993,2.36832 0.21994,3.85721 -0.26998,1.48888 -0.82329,4.77359 -1.22957,7.29936 -0.93376,5.80498 -0.79579,5.16991 -1.75807,8.0923 -0.45276,1.375 -4.5218,7.45 -9.04231,13.5 C 250.96857,288.28973 246,296.03719 246,297.48828 c 0,0.22081 11.9056,-2.57937 14,-3.29278 z m 82.22234,-26.57825 c 0.39581,-2.07055 -0.2113,-2.65716 -4.63343,-4.47702 -7.96987,-3.27987 -12.34368,-3.85184 -18.98664,-2.48289 -3.28561,0.67708 -6.34023,1.00461 -6.78805,0.72784 -0.44782,-0.27677 -0.81422,0.19834 -0.81422,1.0558 0,1.55703 -0.99292,1.93974 -4.20173,1.61949 -0.93595,-0.0934 -2.94355,0.64227 -4.46132,1.63485 -2.08481,1.36339 -2.53354,1.43804 -1.83512,0.30528 0.50846,-0.82467 0.78796,-2.80089 0.6211,-4.39161 -0.24473,-2.33314 0.0141,-2.7704 1.33879,-2.26205 0.90318,0.34658 1.40605,0.24812 1.11747,-0.21881 -0.66138,-1.07013 7.30876,-8.31541 8.40323,-7.63899 0.44441,0.27465 1.07795,-0.20407 1.40787,-1.06383 0.41257,-1.07515 1.26494,-1.35212 2.73001,-0.88713 1.43419,0.4552 1.9066,0.31436 1.44591,-0.43105 -0.38223,-0.61846 -0.0329,-1.10713 0.79144,-1.10713 0.81163,0 1.67939,-0.5625 1.92836,-1.25 0.36164,-0.99861 0.88119,-0.9969 2.58334,0.008 1.71217,1.0113 2.13366,1.0113 2.14596,0 0.0104,-0.85024 0.32976,-0.7719 0.98469,0.24153 0.64625,1 0.97448,1.08333 0.98469,0.25 0.0263,-2.15109 5.7485,-1.46902 7.39483,0.88146 0.92297,1.31772 2.0986,1.89904 3.07939,1.52268 0.91348,-0.35053 2.42523,0.23 3.56377,1.36854 1.08753,1.08753 2.622,1.97732 3.40993,1.97732 1.24012,0 2.86578,2.84738 3.01823,5.28647 0.027,0.43257 0.50888,1.10757 1.07076,1.5 0.56188,0.39244 1.1554,2.14843 1.31893,3.9022 0.24968,2.67763 -0.18656,3.43891 -2.72194,4.75 -4.22503,2.18485 -5.43222,1.98233 -4.89625,-0.82142 z m -59.64868,27.60894 c -1.72775,-1.65022 -1.75457,-1.6234 -0.60945,0.60946 0.6588,1.2846 1.47209,2.06139 1.80729,1.72619 0.3352,-0.3352 -0.20383,-1.38624 -1.19784,-2.33565 z m -5.38616,-2.9093 c -0.72188,-0.28887 -1.58438,-0.25335 -1.91667,0.0789 -0.33229,0.33229 0.25834,0.56864 1.3125,0.52522 1.16495,-0.048 1.4019,-0.28494 0.60417,-0.60416 z m 58.22905,-8.96002 c 0.9187,-2.39409 0.20261,-2.57794 -1.21288,-0.31139 -0.67134,1.07499 -0.81495,1.95452 -0.31913,1.95452 0.49581,0 1.18522,-0.73941 1.53201,-1.64313 z m -3.03499,-62.90881 c 0.34149,-0.88992 0.17385,-1.29132 -0.39301,-0.94098 -0.5437,0.33602 -0.98855,1.0344 -0.98855,1.55194 0,1.43843 0.71677,1.12146 1.38156,-0.61096 z M 330,219 c 0,-0.55 -0.45,-1 -1,-1 -0.55,0 -1,0.45 -1,1 0,0.55 0.45,1 1,1 0.55,0 1,-0.45 1,-1 z m 72.54112,-62.93347 C 402.17858,155.47994 401.44078,155 400.90156,155 c -0.53923,0 -0.40017,0.62961 0.30901,1.39914 1.43566,1.55782 2.35661,1.3276 1.33055,-0.33261 z m -47.93695,-21.7957 c -0.33229,-0.33229 -0.56864,0.25834 -0.52522,1.3125 0.048,1.16495 0.28494,1.4019 0.60416,0.60417 0.28887,-0.72188 0.25335,-1.58437 -0.0789,-1.91667 z m 1.0625,-8.72684 c 0,-0.80081 -0.38234,-1.21971 -0.84965,-0.9309 -0.4673,0.28881 -0.59075,0.94401 -0.27431,1.45601 0.80862,1.30838 1.12396,1.16106 1.12396,-0.52511 z M 65.849884,450.68088 c 0.852427,-1.02711 0.765453,-1.34755 -0.36576,-1.34755 -0.816268,0 -1.498436,0.4875 -1.515927,1.08334 -0.01749,0.59583 -0.692492,0.20982 -1.5,-0.8578 C 61.660688,448.49125 61,448.00719 61,448.48318 c 0,1.76433 -4.853963,-3.76519 -5.47408,-6.23593 -0.501,-1.99614 0.308016,-3.96594 3.657449,-8.90517 C 61.548777,429.85394 64.036064,427 64.710671,427 c 0.674608,0 0.989803,-0.61698 0.700434,-1.37106 -0.289369,-0.75408 0.174754,-2.07194 1.031385,-2.92857 C 67.29912,421.84374 68,420.8669 68,420.52962 c 0,-0.33729 0.948795,-1.60693 2.108433,-2.82143 1.159638,-1.21451 2.539244,-3.40434 3.06579,-4.86629 1.508762,-4.18909 6.079602,-4.52893 14.825777,-1.10231 0.825,0.32322 1.8,0.62654 2.166667,0.67404 1.318902,0.17087 2.138419,1.58637 0.91844,1.58637 -0.825228,0 -0.520874,1.17688 0.898117,3.47286 1.614541,2.61238 1.86905,3.78929 1.027193,4.75 C 90.766103,424.78401 81,439.06038 81,439.78003 c 0,0.40722 -1.125,1.95367 -2.5,3.43654 -1.375,1.48288 -2.5,3.21393 -2.5,3.84677 0,0.63285 -0.675,0.89162 -1.5,0.57503 -1.020289,-0.39152 -1.5,0.054 -1.5,1.39301 0,1.1799 -0.701131,1.99839 -1.75,2.04293 -0.9625,0.0409 -2.822908,0.27227 -4.13424,0.51421 -1.909261,0.35227 -2.161443,0.17145 -1.265876,-0.90764 z M 92,420 c 0,-0.55 -0.476558,-1 -1.059017,-1 -0.582459,0 -0.780902,0.45 -0.440983,1 0.339919,0.55 0.816476,1 1.059017,1 C 91.801558,421 92,420.55 92,420 Z m 280.96421,6.16435 c 0.6588,-1.2846 1.47209,-2.06139 1.80729,-1.72619 0.3352,0.3352 -0.20383,1.38624 -1.19784,2.33565 -1.72775,1.65022 -1.75457,1.6234 -0.60945,-0.60946 z m 124.36321,-8.3084 c 0.40855,-1.56231 0.26153,-1.8449 -0.54187,-1.0415 -1.3261,1.3261 -8.12619,-3.68188 -10.66249,-7.85249 -0.89268,-1.4679 -1.9198,-2.62235 -2.28249,-2.56543 C 482.92508,406.54018 479,401.42824 479,400.09227 479,399.49152 478.50122,399 477.89159,399 c -0.68553,0 -0.86692,-0.96217 -0.47543,-2.52196 0.45208,-1.80125 0.17699,-2.69693 -0.96263,-3.13425 -1.25828,-0.48285 -0.61858,-1.5352 3.02606,-4.97804 4.31992,-4.08071 7.54137,-5.82671 5.92492,-3.21124 -0.44259,0.71613 -0.27426,0.88303 0.44332,0.43954 1.46785,-0.90719 10.30293,5.353 9.46597,6.70722 -0.34255,0.55426 -0.14226,0.71075 0.44509,0.34774 1.19635,-0.73938 11.07494,7.90451 14.44924,12.64328 1.78406,2.50548 1.87698,2.95435 0.50239,2.42687 -0.92759,-0.35595 -1.61926,-0.32588 -1.53704,0.0668 0.37961,1.81321 -2.26241,6.27708 -3.32612,5.61968 -0.69243,-0.42795 -0.88627,-0.27764 -0.48313,0.37464 0.72422,1.17183 -5.22091,6.21969 -7.32525,6.21969 -0.80841,0 -1.06783,-0.78168 -0.71156,-2.14405 z M 495,413 c 0,-0.55 -0.45,-1 -1,-1 -0.55,0 -1,0.45 -1,1 0,0.55 0.45,1 1,1 0.55,0 1,-0.45 1,-1 z m -6.8125,-8.68311 c -0.72188,-0.28887 -1.58438,-0.25335 -1.91667,0.0789 -0.33229,0.33229 0.25834,0.56864 1.3125,0.52522 1.16495,-0.048 1.4019,-0.28494 0.60417,-0.60416 z m -0.38063,-5.84335 c -0.30789,-0.30789 -0.86705,0.24711 -1.24258,1.23333 -0.54268,1.4252 -0.42782,1.54006 0.5598,0.5598 0.68342,-0.67834 0.99067,-1.48524 0.68278,-1.79313 z M 341,402.56739 c 0,-0.78794 -0.90653,-1.72034 -2.01452,-2.072 -2.90906,-0.9233 -1.68261,-2.0671 2.17507,-2.02851 2.42939,0.0243 3.40718,0.53359 3.67342,1.91329 0.19955,1.0341 -0.24396,2.26471 -0.98558,2.73469 C 341.88313,404.3603 341,404.19056 341,402.56739 Z M 337.5,402 c -0.33992,-0.55 -0.14148,-1 0.44098,-1 0.58246,0 1.05902,0.45 1.05902,1 0,0.55 -0.19844,1 -0.44098,1 -0.24254,0 -0.7191,-0.45 -1.05902,-1 z m -12.09805,-6.5329 c 0.2906,-1.97996 1.59483,-3.09859 1.61336,-1.38377 0.0108,0.99697 0.23485,1.0716 0.75634,0.25191 0.54492,-0.85652 1.26861,-0.76 2.73468,0.36475 1.13577,0.87135 1.3482,1.32676 0.49367,1.05834 -0.825,-0.25914 -2.4686,-0.11361 -3.65244,0.32341 -1.58934,0.58671 -2.09833,0.42591 -1.94561,-0.61464 z M 475,395 c 0,-0.55 0.45,-1 1,-1 0.55,0 1,0.45 1,1 0,0.55 -0.45,1 -1,1 -0.55,0 -1,-0.45 -1,-1 z m -152,-4 c 0,-0.55 0.45,-1 1,-1 0.55,0 1,0.45 1,1 0,0.55 -0.45,1 -1,1 -0.55,0 -1,-0.45 -1,-1 z m 22.59856,-4.60375 c -0.34435,-0.89736 -1.25878,-1.35688 -2.07606,-1.04326 -0.80335,0.30828 -2.71205,-0.0923 -4.24157,-0.89008 -2.33916,-1.22015 -2.46322,-1.46411 -0.78093,-1.5357 1.26242,-0.0537 1.49728,-0.28503 0.63685,-0.62721 -1.15087,-0.45768 -1.15087,-0.67945 0,-1.42408 0.9548,-0.61777 0.61425,-0.80618 -1.13685,-0.62895 -1.375,0.13917 -2.81876,0.69927 -3.20836,1.24467 -0.45228,0.63315 -1.15722,0.54278 -1.95,-0.25 -0.98885,-0.98885 -0.98532,-1.24164 0.0174,-1.24164 0.69246,0 0.95121,-0.49804 0.575,-1.10676 -0.49622,-0.8029 -0.87756,-0.7936 -1.38897,0.0339 -0.96477,1.56103 -3.83576,0.30765 -4.56609,-1.99341 -0.32845,-1.03484 -1.75433,-2.79175 -3.16864,-3.90424 -1.82151,-1.4328 -2.60629,-3.04404 -2.69089,-5.52469 -0.0657,-1.92609 -0.40447,-3.50261 -0.75285,-3.50337 -0.34839,-7.7e-4 -0.84848,-1.1264 -1.11133,-2.5014 -0.26285,-1.375 -0.14279,-2.5 0.26679,-2.5 0.40958,0 0.98005,-0.9 1.26771,-2 0.75065,-2.8705 5.71025,-2.80847 5.71025,0.0714 0,1.13928 0.65588,2.72731 1.45751,3.52894 0.80163,0.80163 1.17516,2.19331 0.83006,3.09261 -0.41037,1.0694 -0.2353,1.39275 0.50602,0.93459 0.6234,-0.38529 2.16237,0.23678 3.41994,1.38237 1.25756,1.14559 2.98029,2.71707 3.82828,3.49216 2.84865,2.60375 10.42309,5.45379 14.5532,5.47594 4.75784,0.0255 6.94672,1.96592 7.60563,6.74227 0.39073,2.83229 0.0558,3.40463 -2.77932,4.75 -4.31038,2.04541 -10.02445,2.0063 -10.82276,-0.0741 z M 338.5,373 c -0.33992,-0.55 -0.81648,-1 -1.05902,-1 -0.24254,0 -0.44098,0.45 -0.44098,1 0,0.55 0.47656,1 1.05902,1 0.58246,0 0.7809,-0.45 0.44098,-1 z M 21.298676,377.66404 C 21.711722,376.58766 21.429667,376 20.5,376 c -0.95197,0 -1.215793,-0.59086 -0.781384,-1.75 0.57433,-1.53249 0.446138,-1.57942 -1.031385,-0.37756 -1.468899,1.19485 -1.702563,1.13015 -1.805714,-0.5 -0.06517,-1.02984 -0.04544,-2.43494 0.04384,-3.12244 0.08928,-0.6875 -0.273572,-1.25 -0.806328,-1.25 -1.431776,0 -0.514588,-7.13398 1.04422,-8.12205 C 18.238317,360.1965 18.20636,360.02463 17,360 c -1.275001,-0.026 -1.286937,-0.16548 -0.07958,-0.92966 0.781232,-0.49446 4.162557,-0.92007 7.514054,-0.9458 3.351498,-0.0257 7.959123,-0.70495 10.239168,-1.5094 2.280045,-0.80444 4.400346,-1.20782 4.71178,-0.89638 0.311433,0.31143 1.246387,0.002 2.077674,-0.68813 0.831287,-0.68991 2.15492,-1.00745 2.941407,-0.70565 0.786487,0.30181 1.68904,-0.12637 2.005672,-0.9515 0.316633,-0.82514 0.99467,-1.2413 1.506749,-0.92482 0.512079,0.31648 4.452757,-0.54925 8.757063,-1.92385 9.241753,-2.9514 12.175246,-3.253 10.359434,-1.06508 -1.002217,1.20759 -0.864363,1.39288 0.79812,1.07271 2.128653,-0.40994 4.832887,3.88664 5.7988,9.21333 0.260713,1.43774 0.702099,2.98312 0.980857,3.43416 C 74.889959,363.63097 74.430599,364 73.590402,364 c -0.883146,0 -1.305684,0.57839 -1.001547,1.37096 0.601426,1.56729 -2.188825,2.96768 -3.929097,1.97196 -0.637867,-0.36496 -0.811091,-0.28026 -0.384942,0.18824 1.220962,1.34228 -5.469777,3.25743 -7.645493,2.18843 -1.028873,-0.50552 -1.624931,-0.5215 -1.324574,-0.0355 0.300357,0.48599 -2.457838,1.72326 -6.129323,2.7495 -3.671484,1.02624 -8.406471,2.67871 -10.522193,3.67216 -2.70766,1.27139 -6.185959,1.80113 -11.746217,1.78891 -4.344697,-0.01 -8.427624,0.30907 -9.073171,0.70804 -0.790941,0.48883 -0.965473,0.18271 -0.535169,-0.93865 z m 28.098318,-12.49737 c 0.283266,-0.45834 -0.120382,-0.83334 -0.896994,-0.83334 -0.776612,0 -1.18026,0.375 -0.896994,0.83334 C 47.886271,365.625 48.289919,366 48.5,366 c 0.210081,0 0.613729,-0.375 0.896994,-0.83333 z M 58.5,364 c -0.339919,-0.55 -1.153976,-0.99311 -1.809017,-0.98469 -0.715616,0.009 -0.592275,0.40223 0.309017,0.98469 1.921123,1.24153 2.267305,1.24153 1.5,0 z m 7,-1 c -0.339919,-0.55 -0.816476,-1 -1.059017,-1 C 64.198442,362 64,362.45 64,363 c 0,0.55 0.476558,1 1.059017,1 0.582459,0 0.780902,-0.45 0.440983,-1 z m -5.375912,-6.26667 c -0.987616,-0.98026 -1.10248,-0.8654 -0.559795,0.5598 0.375531,0.98622 0.934692,1.54122 1.242579,1.23333 0.307887,-0.30789 6.34e-4,-1.11479 -0.682784,-1.79313 z M 504.14669,349.4473 c -1.84433,-0.7907 -3.74361,-1.19642 -4.22064,-0.9016 -0.47702,0.29482 -2.17348,-0.13941 -3.7699,-0.96495 -1.59642,-0.82554 -3.17404,-1.22952 -3.50583,-0.89774 -0.33178,0.33179 -0.88599,-0.13358 -1.23157,-1.03414 -0.34557,-0.90056 -1.14367,-1.32859 -1.77353,-0.95117 -0.62987,0.37742 -0.47375,-0.14007 0.34694,-1.14999 1.38626,-1.70589 1.3223,-1.78229 -0.90127,-1.07656 -2.00517,0.63642 -2.28594,0.47953 -1.73082,-0.96709 0.46459,-1.2107 0.25492,-1.5703 -0.70157,-1.20325 -1.45229,0.55729 -1.46556,-1.53405 -0.0527,-8.30081 0.40193,-1.925 0.67572,-3.7755 0.6084,-4.11222 -0.1799,-0.89993 13.15302,0.0971 13.76522,1.02942 0.2863,0.43598 6.80588,0.89036 14.48797,1.00973 7.68209,0.11938 14.43209,0.52216 15,0.89506 1.14197,0.74985 1.4317,2.10237 2.18024,10.17801 0.81523,8.79523 -0.13243,9.46006 -13.81583,9.69247 -8.00334,0.13593 -12.31681,-0.22981 -14.68515,-1.24517 z M 503.5,346 c -0.33992,-0.55 -0.81648,-1 -1.05902,-1 -0.24254,0 -0.44098,0.45 -0.44098,1 0,0.55 0.47656,1 1.05902,1 0.58246,0 0.7809,-0.45 0.44098,-1 z m -5.90451,-2.15451 c 0.45139,-0.73036 0.27329,-0.88242 -0.48479,-0.41391 -0.65907,0.40733 -1.8536,0.19676 -2.6545,-0.46793 -0.89864,-0.74581 -1.4562,-0.81068 -1.4562,-0.16943 0,0.95032 1.4702,1.93023 3.19098,2.12683 0.38004,0.0434 1.01207,-0.44058 1.40451,-1.07556 z M 499,332 c 0,-0.55 -0.47656,-1 -1.05902,-1 -0.58246,0 -0.7809,0.45 -0.44098,1 0.33992,0.55 0.81648,1 1.05902,1 0.24254,0 0.44098,-0.45 0.44098,-1 z m -275.05583,14.48196 c -1.3443,-0.76785 -3.48375,-1.86456 -4.75434,-2.43715 -1.36991,-0.61734 -2.0193,-1.51172 -1.5955,-2.19745 0.45257,-0.73227 0.27513,-0.88472 -0.4838,-0.41567 -2.06694,1.27744 -5.88121,-2.01528 -5.57421,-4.81201 0.33067,-3.01234 1.22893,-4.61968 2.58171,-4.61968 0.55,0 0.74111,0.41891 0.42468,0.9309 -0.31644,0.512 -0.0485,1.25653 0.59549,1.65451 0.73122,0.45192 0.90292,0.29014 0.45729,-0.4309 C 215.20305,333.51953 215.35852,333 215.94098,333 c 0.58246,0 1.05213,-0.7875 1.04371,-1.75 -0.0114,-1.30179 -0.22609,-1.41773 -0.83827,-0.45267 -0.65931,1.03935 -1.07272,0.9964 -2.07892,-0.216 -0.73932,-0.89082 -2.71496,-1.45849 -4.80279,-1.38 -2.42377,0.0911 -4.01972,-0.47376 -5.0403,-1.784 -1.22558,-1.57341 -1.38749,-1.60917 -0.90262,-0.19936 0.79042,2.29822 -0.80049,3.13139 -3.36181,1.76061 -2.36368,-1.265 -2.33982,-4.84567 0.04,-6.00512 7.10881,-3.46337 12.9726,-4.35617 11.3482,-1.72784 -0.433,0.70061 -0.0785,0.86488 0.98535,0.45663 0.92677,-0.35564 3.21061,0.27628 5.16405,1.42883 3.70921,2.18849 4.68396,3.53272 1.7524,2.41666 -1.3709,-0.52191 -1.4884,-0.40262 -0.54238,0.55063 0.94844,0.95571 1.53864,0.94214 2.75,-0.0632 1.30967,-1.08693 1.54238,-0.95093 1.54238,0.9014 0,1.2607 0.44058,1.90917 1.0438,1.53636 1.31599,-0.81332 3.9562,1.31005 3.9562,3.18174 0,0.77538 -1.0125,1.81675 -2.25,2.31417 -1.2375,0.49741 -1.6875,0.93291 -1,0.96777 2.0026,0.10155 1.44408,1.67116 -0.97947,2.75258 l -2.22948,0.99482 2.22948,1.19318 c 1.22621,0.65625 2.22947,1.85234 2.22947,2.65799 0,0.80565 0.47656,1.46482 1.05902,1.46482 0.58246,0 0.73793,-0.51953 0.34549,-1.15451 -0.41954,-0.67883 -0.27653,-0.88443 0.3471,-0.499 1.07221,0.66266 0.58573,4.32699 -0.67815,5.10811 -0.37682,0.23289 -1.785,-0.2048 -3.12929,-0.97264 z M 223.5,343 c -0.33992,-0.55 -1.15398,-0.99311 -1.80902,-0.98469 -0.71561,0.009 -0.59227,0.40223 0.30902,0.98469 1.92112,1.24153 2.2673,1.24153 1.5,0 z m -3.34131,-6.30879 c -0.81083,-0.97699 -0.59363,-1.73055 0.85676,-2.97241 1.29193,-1.10619 1.70165,-2.25923 1.22278,-3.44121 -0.62893,-1.55239 -0.7618,-1.49254 -1.04875,0.47241 -0.18072,1.2375 -0.69914,2.25 -1.15204,2.25 -1.48166,0 -2.13783,3.31938 -0.82131,4.15474 1.8636,1.18248 2.17964,1.02706 0.94256,-0.46353 z M 220,328.94098 c 0,-0.58246 -0.45,-0.7809 -1,-0.44098 -1.28138,0.79194 -1.28138,1.5 0,1.5 0.55,0 1,-0.47656 1,-1.05902 z m -18,-4 c 0,-0.58246 -0.45,-0.7809 -1,-0.44098 -1.28138,0.79194 -1.28138,1.5 0,1.5 0.55,0 1,-0.47656 1,-1.05902 z m 8.86168,-0.60765 C 210.25307,323.6 209.66021,323 209.54422,323 c -0.11599,0 -0.21089,0.6 -0.21089,1.33333 0,0.73334 0.59286,1.33334 1.31746,1.33334 0.9845,0 1.0378,-0.33697 0.21089,-1.33334 z M 206,324 c 0,-0.55 -0.45,-1 -1,-1 -0.55,0 -1,0.45 -1,1 0,0.55 0.45,1 1,1 0.55,0 1,-0.45 1,-1 z M 61.098734,308.19958 c -0.611157,-0.20372 -0.813863,-0.85149 -0.450456,-1.4395 0.405138,-0.65553 0.184646,-0.77486 -0.569982,-0.30847 -0.733106,0.45308 -2.716134,-0.415 -4.904508,-2.14698 -5.105887,-4.04104 -10.013357,-6.85092 -14.432997,-8.26394 -2.067565,-0.66103 -3.529444,-1.57364 -3.24862,-2.02802 0.280824,-0.45438 -0.390032,-0.59063 -1.490791,-0.30278 C 34.767357,294.03259 34,293.74123 34,292.94996 c 0,-0.70581 -0.298384,-0.98491 -0.663076,-0.62022 -0.95414,0.95414 -4.586924,-5.37916 -4.586924,-7.99673 0,-1.21415 0.84375,-4.28421 1.875,-6.82235 1.839285,-4.5269 1.941668,-4.6009 5.375,-3.88534 1.925,0.40121 4.62554,0.79889 6.001201,0.88374 1.37566,0.0848 3.40066,0.62079 4.5,1.19099 1.099339,0.5702 3.686299,1.58085 5.748799,2.24589 2.0625,0.66504 3.75,1.62427 3.75,2.13161 0,0.50735 0.614263,0.92245 1.365029,0.92245 0.750766,0 3.982163,1.77625 7.180883,3.94723 3.198719,2.17097 6.260929,3.67215 6.804909,3.33595 0.565748,-0.34965 0.736173,0.0477 0.398197,0.92848 -0.394603,1.02832 -0.03586,1.498 1.080062,1.41405 1.418321,-0.10671 1.65584,0.90011 1.571166,6.65999 -0.08199,5.57753 -0.482596,7.14236 -2.25,8.78895 -1.393792,1.29852 -2.155633,1.54981 -2.165559,0.71431 -0.01079,-0.90817 -0.295715,-0.84582 -0.964465,0.21104 -0.878703,1.38867 -5.331374,2.06295 -7.921488,1.19958 z m 10.697595,-7.1541 c -0.671341,-1.07499 -1.414279,-1.76086 -1.650975,-1.52417 -0.428595,0.4286 1.750732,3.47869 2.485565,3.47869 0.212316,0 -0.16325,-0.87953 -0.83459,-1.95452 z M 41,291.10765 c 0,-0.42587 -0.675,-0.77432 -1.5,-0.77432 -1.567416,0 -1.951891,0.88145 -0.86052,1.97282 C 39.386507,293.05317 41,292.23396 41,291.10765 Z m 442.73776,-0.79933 c -0.96924,-0.25283 -1.4691,-0.93401 -1.11081,-1.51373 0.37403,-0.60519 0.0598,-0.84898 -0.73775,-0.57249 -1.66756,0.57806 -6.8892,-4.55477 -6.8892,-6.77202 0,-0.93067 0.46931,-1.27807 1.15451,-0.85459 0.7176,0.4435 0.88297,0.27416 0.43697,-0.44747 -0.87459,-1.41512 8.3865,-11.27966 9.78068,-10.41801 0.55192,0.3411 0.70114,-0.0966 0.34729,-1.01873 -0.73222,-1.90812 4.84724,-7.09711 6.51973,-6.06346 0.58841,0.36366 0.80648,0.23508 0.4846,-0.28573 -0.32188,-0.52082 1.44033,-3.15305 3.91602,-5.84942 2.69577,-2.93607 4.77379,-4.47077 5.18073,-3.82618 0.37371,0.59196 1.80447,1.0823 3.17947,1.08964 4.17848,0.0223 5.30777,0.59545 7.58399,3.84909 2.34948,3.35835 2.26583,7.4246 -0.19473,9.46669 -0.76409,0.63414 -1.38926,1.54446 -1.38926,2.02293 0,1.70323 -4.43214,5.93331 -5.70497,5.44488 C 505.58276,274.2864 505,274.49522 505,275.02378 c 0,1.85027 -4.42323,6.02779 -5.81631,5.49321 -0.89793,-0.34456 -1.21664,-0.0452 -0.88157,0.82794 0.29902,0.77923 -1.37397,3.15442 -3.88866,5.52084 -2.4274,2.28427 -4.41346,3.75143 -4.41346,3.26036 0,-0.49108 -0.9,-1.12822 -2,-1.41588 -2.16676,-0.56662 -2.7972,0.8014 -0.75,1.62747 1.58668,0.64024 -1.02904,0.61834 -3.51224,-0.0294 z M 487.5,283 c -0.33992,-0.55 -0.81648,-1 -1.05902,-1 -0.24254,0 -0.44098,0.45 -0.44098,1 0,0.55 0.47656,1 1.05902,1 0.58246,0 0.7809,-0.45 0.44098,-1 z m 4.6875,-7.68311 c -0.72188,-0.28887 -1.58438,-0.25335 -1.91667,0.0789 -0.33229,0.33229 0.25834,0.56864 1.3125,0.52522 1.16495,-0.048 1.4019,-0.28494 0.60417,-0.60416 z m 8.19406,-9.86883 c 0.34149,-0.88992 0.17385,-1.29132 -0.39301,-0.94098 -0.5437,0.33602 -0.98855,1.0344 -0.98855,1.55194 0,1.43843 0.71677,1.12146 1.38156,-0.61096 z M 201.25,140.49949 c -1.2375,-0.8871 -2.25,-2.62238 -2.25,-3.85619 0,-1.23382 -0.50473,-2.74803 -1.12163,-3.36493 -1.33157,-1.33157 -1.65573,-8.93757 -0.50198,-11.77837 0.53169,-1.30913 0.49095,-1.55319 -0.11793,-0.70654 -0.59705,0.83019 -0.76288,-0.78153 -0.463,-4.5 0.25697,-3.1864 0.85811,-5.94346 1.33588,-6.12679 0.47776,-0.18334 0.86866,-0.77239 0.86866,-1.30902 0,-0.53663 -0.53164,-0.64711 -1.18143,-0.24552 -0.98199,0.6069 0.767,-1.99722 5.44768,-8.11123 3.8838,-5.073096 11.94715,-13.235708 14.95005,-15.134076 5.97799,-3.779157 14.05173,-6.551179 14.93207,-5.126749 0.40859,0.661103 1.04072,0.904172 1.40473,0.540154 0.36402,-0.364017 1.80578,0.398862 3.20392,1.695288 l 2.54207,2.357137 -3.64955,4.263672 C 234.64229,91.441345 233,93.916498 233,94.596665 c 0,0.680168 -0.3375,1.386668 -0.75,1.570002 -1.60718,0.714303 -6.19566,8.852413 -9.25104,16.407633 -1.76287,4.35913 -3.83381,9.34371 -4.60209,11.07683 C 217.62859,125.38425 217,127.75384 217,128.91688 217,131.90064 214.67477,139 213.6975,139 c -0.44854,0 -0.58377,0.375 -0.30051,0.83333 0.28327,0.45834 -0.0277,0.9154 -0.69098,1.01571 -7.9042,1.19525 -9.36309,1.15074 -11.45601,-0.34955 z M 206,107 c 0,-0.55 -0.45,-1 -1,-1 -0.55,0 -1,0.45 -1,1 0,0.55 0.45,1 1,1 0.55,0 1,-0.45 1,-1 z"
     id="path817"
     inkscape:connector-curvature="0" />
</svg>
